<?xml version="1.0" standalone="no"?>
<!DOCTYPE svg PUBLIC "-//W3C//DTD SVG 20010904//EN"
 "http://www.w3.org/TR/2001/REC-SVG-20010904/DTD/svg10.dtd">
<svg version="1.0" xmlns="http://www.w3.org/2000/svg"
 width="356.000000pt" height="246.000000pt" viewBox="0 0 356.000000 246.000000"
 preserveAspectRatio="xMidYMid meet">

<g transform="translate(0.000000,246.000000) scale(0.100000,-0.100000)"
fill="#ff4040" stroke="none">
<path d="M1175 2269 c-318 -10 -626 -30 -648 -41 -16 -8 -284 -533 -334 -654
l-21 -51 152 -141 c344 -319 906 -790 1377 -1155 l86 -66 144 112 c330 257
747 600 1039 856 219 192 425 385 428 402 1 8 -75 169 -170 359 l-173 345
-175 12 c-452 30 -1179 39 -1705 22z m115 -277 c-181 -126 -274 -246 -321
-417 -17 -62 -20 -98 -17 -191 1 -63 0 -113 -4 -112 -13 5 -348 309 -348 316
0 4 43 94 95 199 l94 191 63 7 c52 5 309 19 433 23 l30 1 -25 -17z m1415 -10
l70 -7 30 -55 c16 -30 60 -118 97 -195 l68 -139 -23 -24 c-26 -29 -248 -229
-367 -330 -50 -44 -91 -71 -100 -68 -8 2 -29 10 -47 17 l-31 13 -94 -95 c-137
-139 -227 -179 -404 -179 -288 0 -433 173 -434 518 0 258 77 426 228 495 39
18 65 22 157 22 105 0 114 -2 177 -33 92 -45 163 -126 229 -258 28 -56 58
-105 66 -108 27 -11 119 -6 131 6 9 9 12 72 12 223 l0 212 83 -5 c45 -2 114
-7 152 -10z m-836 -1268 c52 3 90 2 85 -3 -58 -52 -155 -121 -169 -121 -16 0
-175 118 -175 131 0 3 37 1 83 -4 45 -4 124 -6 176 -3z"/>
</g>
</svg>
